<?xml version="1.0" encoding="UTF-8" standalone="no"?>
<!-- Created with Inkscape (http://www.inkscape.org/) -->

<svg
   width="923.5022"
   height="80"
   viewBox="0 0 244.34329 21.166666"
   version="1.1"
   id="svg1"
   xml:space="preserve"
   sodipodi:docname="透湖とねことITと.svg"
   inkscape:version="1.3 (0e150ed6c4, 2023-07-21)"
   inkscape:export-filename="logo.svg"
   inkscape:export-xdpi="96"
   inkscape:export-ydpi="96"
   xmlns:inkscape="http://www.inkscape.org/namespaces/inkscape"
   xmlns:sodipodi="http://sodipodi.sourceforge.net/DTD/sodipodi-0.dtd"
   xmlns="http://www.w3.org/2000/svg"
   xmlns:svg="http://www.w3.org/2000/svg"><sodipodi:namedview
     id="namedview1"
     pagecolor="#ffffff"
     bordercolor="#000000"
     borderopacity="0.25"
     inkscape:showpageshadow="2"
     inkscape:pageopacity="0.0"
     inkscape:pagecheckerboard="0"
     inkscape:deskcolor="#d1d1d1"
     inkscape:document-units="px"
     inkscape:zoom="0.72426347"
     inkscape:cx="463.91957"
     inkscape:cy="126.33524"
     inkscape:window-width="1409"
     inkscape:window-height="695"
     inkscape:window-x="367"
     inkscape:window-y="140"
     inkscape:window-maximized="0"
     inkscape:current-layer="layer1" /><defs
     id="defs1" /><g
     inkscape:label="Layer 1"
     inkscape:groupmode="layer"
     id="layer1"
     transform="translate(-7.3183631,-16.26855)"><path
       style="font-size:80px;line-height:1.8;font-family:HackGen;-inkscape-font-specification:HackGen;text-align:end;letter-spacing:20px;text-anchor:end;white-space:pre;shape-padding:15.1878"
       d="m 185.30273,101.2832 q -1.17187,0 -2.03125,-0.78125 -0.78125,-0.859374 -0.78125,-2.031249 v -7.734375 q 0,-0.07813 -0.0781,-0.07813 -0.0781,-0.07813 -0.15625,0 -3.59375,4.0625 -8.51563,7.734375 -4.84375,3.593749 -9.92187,6.093749 -1.09375,0.46875 -2.26563,0.15625 -1.09375,-0.3125 -1.95312,-1.25 -0.625,-0.70313 -0.46875,-1.64063 0.23437,-0.9375 1.09375,-1.32812 5.07812,-2.109374 10,-5.390624 4.92187,-3.28125 8.35937,-6.953125 0.0781,-0.07813 0,-0.15625 0,-0.07813 -0.0781,-0.07813 h -15.9375 q -1.01563,0 -1.71875,-0.703125 -0.625,-0.703125 -0.625,-1.640625 0,-1.015625 0.625,-1.71875 0.70312,-0.703125 1.71875,-0.703125 h 19.60937 q 0.3125,0 0.3125,-0.3125 v -5.390625 q 0,-0.3125 -0.3125,-0.3125 -7.96875,0.546875 -16.01562,0.859375 -0.9375,0 -1.71875,-0.546875 -0.70313,-0.625 -1.01563,-1.484375 -0.3125,-0.78125 0.0781,-1.40625 0.46875,-0.703125 1.25,-0.78125 22.65625,-0.9375 36.17187,-3.359375 0.54688,-0.07813 1.01563,-0.07813 2.10937,0 3.59375,1.5625 0.625,0.625 0.3125,1.484375 -0.23438,0.859375 -1.09375,1.015625 -7.26563,1.40625 -16.25,2.1875 -0.3125,0 -0.3125,0.390625 v 5.859375 q 0,0.3125 0.3125,0.3125 h 20.07812 q 0.9375,0 1.64063,0.703125 0.70312,0.703125 0.70312,1.71875 0,0.9375 -0.70312,1.640625 -0.70313,0.703125 -1.64063,0.703125 h -16.71875 q -0.0781,0 -0.15625,0.07813 0,0.07813 0.0781,0.15625 3.35937,3.515625 8.125,6.5625 4.76562,3.046875 9.76562,5 0.85938,0.3125 1.01563,1.250004 0.23437,0.9375 -0.39063,1.64062 0,0.0781 -0.0781,0.15625 -0.78125,0.9375 -1.875,1.32813 -1.09375,0.3125 -2.1875,-0.15625 -10.39063,-5.000004 -17.73438,-13.281254 -0.0781,-0.07813 -0.15625,0 -0.0781,0 -0.0781,0.07813 v 7.8125 q 0,1.171875 -0.85938,2.031244 -0.78125,0.78125 -1.95312,0.78125 z m 10.46875,8.67188 q -0.0781,0.3125 0.3125,0.3125 h 9.45313 q 1.17187,0 1.95312,0.85937 0.78125,0.85938 0.625,1.95313 -0.625,6.71875 -1.48437,10 -0.78125,3.28125 -2.10938,4.53125 -1.48437,1.5625 -4.84375,1.64062 -1.40625,0.15625 -3.51562,0.15625 -1.64063,0 -3.75,-0.0781 -1.01563,-0.0781 -1.79688,-0.78125 -0.78125,-0.70313 -1.09375,-1.71875 -0.23437,-0.78125 0.23438,-1.40625 0.46875,-0.70313 1.25,-0.625 2.89062,0.15625 6.40625,0.15625 2.03125,0 2.73437,-0.54688 1.48438,-1.40625 2.34375,-9.29687 0,-0.3125 -0.3125,-0.3125 h -7.1875 q -0.3125,0 -0.39062,0.3125 -0.15625,1.01562 -1.01563,1.5625 -0.85937,0.54687 -1.95312,0.46875 h -0.15625 q -1.01563,-0.15625 -1.64063,-1.01563 -0.54687,-0.85937 -0.3125,-1.875 0.70313,-2.57812 1.40625,-6.17187 0.0781,-0.3125 -0.3125,-0.3125 h -8.75 q -0.3125,0 -0.39062,0.3125 -1.25,7.89062 -4.76563,13.04687 -3.51562,5.15625 -10.78125,8.28125 -1.09375,0.39063 -2.1875,0 -1.09375,-0.39062 -1.79687,-1.32812 -0.54688,-0.78125 -0.3125,-1.71875 0.23437,-0.9375 1.09375,-1.32813 6.17187,-2.5 9.14062,-6.5625 2.96875,-4.14062 4.0625,-10.39062 0.0781,-0.3125 -0.23437,-0.3125 h -6.875 q -0.9375,0 -1.64063,-0.70313 -0.70312,-0.70312 -0.70312,-1.64062 0,-0.9375 0.70312,-1.64063 0.70313,-0.70312 1.64063,-0.70312 h 25.39062 q 1.09375,0 1.79688,0.85937 0.70312,0.85938 0.54687,1.875 -0.46875,2.57813 -0.78125,4.14063 z M 155.61523,81.205076 q 0.70313,0.859375 0.46875,2.03125 -0.15625,1.171875 -1.09375,1.875 l -0.39062,0.3125 q -0.85938,0.703125 -1.95313,0.546875 -1.09375,-0.234375 -1.79687,-1.171875 -3.4375,-4.609375 -8.90625,-9.296875 -0.78125,-0.703125 -0.78125,-1.71875 0,-1.09375 0.85937,-1.71875 h 0.0781 q 1.01562,-0.78125 2.1875,-0.78125 0,0 0.0781,0 1.25,0.07813 2.1875,0.859375 5.46875,4.53125 9.0625,9.0625 z m -3.59375,18.515625 q 1.17188,0 1.95313,0.859379 0.85937,0.78125 0.85937,1.95312 v 22.57813 q 0,0.3125 0.15625,0.625 5.46875,8.125 20,8.67187 4.45313,0.15625 11.09375,0.15625 0,0 5.15625,0 10.15625,-0.0781 17.8125,-0.46875 0.9375,-0.0781 1.40625,0.70313 0.39063,0.46875 0.39063,1.01562 0,0.3125 -0.15625,0.625 0,0 -0.15625,0.625 -0.39063,1.17188 -1.32813,1.95313 -0.9375,0.78125 -2.10937,0.85937 -9.84375,0.3125 -18.125,0.3125 -7.57813,0 -13.90625,-0.3125 -7.8125,-0.23437 -13.28125,-2.5 -5.46875,-2.1875 -9.14063,-6.64062 -0.23437,-0.23438 -0.46875,0 -3.98437,3.82812 -8.82812,8.125 -0.78125,0.70312 -1.875,0.46875 -1.01563,-0.15625 -1.48438,-1.09375 l -0.46875,-0.78125 q -0.54687,-1.01563 -0.3125,-2.1875 0.23438,-1.17188 1.17188,-1.95313 4.53125,-3.4375 8.59375,-7.26562 0.23437,-0.23438 0.23437,-0.54688 V 105.6582 q 0,-0.3125 -0.3125,-0.3125 h -7.03125 q -1.17187,0 -2.03125,-0.78125 -0.78125,-0.85937 -0.78125,-2.03125 0,-1.17187 0.78125,-1.95312 0.85938,-0.859379 2.03125,-0.859379 z m 108.125,-24.140625 q 0.9375,0.78125 1.01563,1.953125 0.15625,1.171875 -0.625,2.109375 l -0.15625,0.234375 q -0.625,0.859375 -1.71875,0.9375 -1.09375,0.07813 -1.95313,-0.625 -3.51562,-2.890625 -8.125,-5.46875 -0.85937,-0.46875 -1.09375,-1.484375 -0.23437,-1.015625 0.39063,-1.796875 0.70312,-0.9375 1.875,-1.171875 0.39062,-0.15625 0.78125,-0.15625 0.70312,0 1.40625,0.390625 4.6875,2.34375 8.20312,5.078125 z m -3.04687,20.78125 q 0.9375,0.703125 1.09375,1.875 0.15625,1.171875 -0.46875,2.109374 l -0.23438,0.23438 q -0.625,0.9375 -1.71875,1.09375 -1.09375,0.15625 -2.03125,-0.54688 -3.67187,-2.734374 -8.4375,-5.078124 -0.9375,-0.46875 -1.17187,-1.40625 -0.0781,-0.3125 -0.0781,-0.546875 0,-0.703125 0.46875,-1.25 0.70313,-0.9375 1.79688,-1.25 1.17187,-0.3125 2.1875,0.15625 4.76562,2.109375 8.59375,4.609375 z m -6.25,41.640624 q -0.46875,1.01563 -1.5625,1.32813 -1.01563,0.39062 -1.95313,-0.23438 l -0.54687,-0.23437 q -1.01563,-0.625 -1.32813,-1.71875 -0.15625,-0.46875 -0.15625,-0.85938 0,-0.70312 0.39063,-1.32812 4.45312,-9.14063 8.75,-20.3125 0.39062,-0.9375 1.40625,-1.25 1.01562,-0.39063 1.875,0.23437 h 0.15625 q 1.01562,0.70313 1.32812,1.875 0.39063,1.17188 0,2.26563 -3.75,10.23437 -8.35937,20.23437 z m 29.76562,-27.5 q 0,-0.39062 -0.3125,-0.39062 h -11.875 q -0.3125,0 -0.3125,0.39062 v 14.6875 q 0,0.3125 0.3125,0.3125 h 11.875 q 0.3125,0 0.3125,-0.3125 z m 5.3125,17.5 q 0,1.17188 -0.85937,2.03125 -0.78125,0.78125 -1.95313,0.78125 h -14.6875 q -0.3125,0 -0.3125,0.3125 v 3.35938 q 0,1.09375 -0.78125,1.875 -0.78125,0.78125 -1.875,0.78125 -1.09375,0 -1.875,-0.78125 -0.78125,-0.78125 -0.78125,-1.875 v -26.79688 q 0,-1.09375 0.78125,-1.875 0.85938,-0.85937 2.03125,-0.85937 h 6.01563 q 0.39062,0 0.39062,-0.39063 V 90.892576 q 0,-0.3125 -0.39062,-0.3125 h -8.75 q -1.17188,0 -2.03125,-0.78125 -0.78125,-0.859375 -0.78125,-1.953125 0,-1.171875 0.78125,-1.953125 0.85937,-0.859375 2.03125,-0.859375 h 8.75 q 0.39062,0 0.39062,-0.390625 V 73.158201 q 0,-1.09375 0.78125,-1.875 0.78125,-0.78125 1.875,-0.78125 1.17188,0 1.95313,0.78125 0.78125,0.78125 0.78125,1.875 v 11.484375 q 0,0.390625 0.39062,0.390625 h 7.5 q 1.17188,0 1.95313,0.859375 0.85937,0.78125 0.85937,1.953125 0,1.09375 -0.85937,1.953125 -0.78125,0.78125 -1.95313,0.78125 h -7.5 q -0.39062,0 -0.39062,0.3125 v 13.671874 q 0,0.39063 0.39062,0.39063 h 5.3125 q 1.17188,0 1.95313,0.85937 0.85937,0.78125 0.85937,1.875 z m 10.54688,-18.67187 q 0,0.3125 0.39062,0.3125 h 10.85938 q 0.39062,0 0.39062,-0.3125 V 96.126951 q 0,-0.390625 -0.39062,-0.390625 h -10.70313 q -0.39062,0 -0.39062,0.390625 v 7.656249 q 0,3.67188 -0.15625,5.54688 z m 11.64062,-32.187504 q 0,-0.390625 -0.39062,-0.390625 h -10.70313 q -0.39062,0 -0.39062,0.390625 v 12.890625 q 0,0.390625 0.39062,0.390625 h 10.70313 q 0.39062,0 0.39062,-0.390625 z m 2.65625,-5.703125 q 1.09375,0 1.875,0.859375 0.85938,0.78125 0.85938,1.875 v 60.078124 q 0,2.26563 -0.625,3.51563 -0.54688,1.25 -2.10938,1.95312 -2.1875,1.01563 -7.89062,1.01563 -1.09375,0 -2.03125,-0.78125 -0.9375,-0.70313 -1.32813,-1.79688 -0.3125,-0.9375 0.15625,-1.71875 0.54688,-0.70312 1.48438,-0.70312 0,0 5.39062,0 0.85938,-0.0781 1.17188,-0.39063 0.39062,-0.3125 0.39062,-1.17187 V 115.3457 q 0,-0.3125 -0.39062,-0.3125 h -11.17188 q -0.39062,0 -0.39062,0.3125 -1.64063,15.54688 -8.35938,24.21875 -0.625,0.85938 -1.79687,0.9375 -1.09375,0.0781 -1.95313,-0.625 -0.85937,-0.625 -1.09375,-1.64062 0,0 0,-0.46875 0,-0.70313 0.46875,-1.40625 2.57813,-3.35938 4.21875,-7.42188 1.71875,-4.0625 2.42188,-8.59375 0.78125,-4.53125 1.01562,-8.20312 0.3125,-3.75 0.3125,-8.35938 V 74.173826 q 0,-1.09375 0.78125,-1.875 0.78125,-0.859375 1.95313,-0.859375 z m 90.70313,12.109375 q 0.85937,-0.625 1.95312,-0.390625 1.09375,0.234375 1.64063,1.171875 l 0.625,1.015625 q 0.625,1.015625 0.3125,2.1875 -0.3125,1.09375 -1.32813,1.640625 -1.17187,0.625 -3.67187,1.953125 0,0 -4.76563,2.34375 -3.82812,1.953125 -6.48437,3.359375 -2.65625,1.328125 -6.40625,3.437504 -3.75,2.10937 -6.40625,3.90625 -11.79688,7.65625 -11.79688,15.9375 0,5.07812 4.76563,7.89062 4.76562,2.8125 13.98437,2.8125 12.26563,0 22.65625,-2.10937 1.01563,-0.23438 1.875,0.46875 0.85938,0.625 0.85938,1.64062 v 1.64063 q 0,1.25 -0.78125,2.1875 -0.78125,0.85937 -1.95313,1.01562 -10.39062,1.5625 -22.34375,1.5625 -5.70312,0 -10.3125,-0.9375 -4.53125,-0.9375 -8.04687,-2.8125 -3.51563,-1.875 -5.46875,-5.07812 -1.875,-3.20313 -1.875,-7.5 0,-5.85938 3.4375,-10.78125 3.4375,-5 10,-9.60938 0.3125,-0.23437 0.0781,-0.46875 -4.14062,-7.343749 -10.23437,-21.562499 -0.46875,-1.09375 -0.0781,-2.109375 0.46875,-1.09375 1.5625,-1.484375 l 1.17188,-0.46875 q 0.54687,-0.234375 1.01562,-0.234375 0.54688,0 1.09375,0.234375 1.01563,0.46875 1.48438,1.5625 4.29687,11.09375 9.45312,20.46875 0.15625,0.3125 0.46875,0.15625 4.29688,-2.578125 11.48438,-6.40625 7.26562,-3.828125 8.51562,-4.53125 2.1875,-1.171875 3.51563,-2.109375 z m 97.96875,46.562504 q 7.42187,0 10.3125,-8.125 0.15625,-0.3125 -0.15625,-0.46875 -5.23438,-2.73438 -10.54688,-2.73438 -3.125,0 -5.39062,1.64063 -2.26563,1.5625 -2.26563,3.90625 0,2.89062 2.26563,4.375 2.26562,1.40625 5.78125,1.40625 z M 477.41211,84.173826 q 0.39062,-0.07813 0.625,0.15625 l 0.9375,1.171875 q 0.625,0.703125 0.625,1.484375 0,0.703125 -0.46875,1.40625 -0.9375,1.40625 -2.34375,3.671875 -0.15625,0.3125 -0.23438,0.703125 0,0.46875 -0.15625,1.5625 -0.0781,1.015625 -0.0781,1.640625 0,0.07813 0.0781,0.15625 0.0781,0 0.15625,-0.07813 14.45313,-12.8125 24.92188,-12.8125 7.8125,0 12.10937,6.328125 4.29688,6.25 4.29688,16.406254 0,7.42188 -1.01563,12.89063 0,0.3125 0.23438,0.54687 3.28125,2.34375 6.5625,5.54688 1.01562,1.01562 1.01562,2.42187 0,1.01562 -0.54687,1.87499 l -0.39063,0.54688 q -0.54687,0.85937 -1.64062,1.01562 -1.01563,0.0781 -1.71875,-0.70312 -2.42188,-2.5 -4.84375,-4.60938 -0.3125,-0.23437 -0.46875,0.0781 -4.14063,10.23437 -15.15625,10.23437 -6.17188,0 -10.15625,-2.8125 -3.90625,-2.8125 -3.90625,-8.4375 0,-4.76562 3.82812,-7.89062 3.90625,-3.125 9.92188,-3.125 5.9375,0 11.25,2.26562 0.3125,0.15625 0.39062,-0.15625 0.54688,-4.375 0.54688,-10.78125 0,-7.343744 -3.20313,-11.640619 -3.20312,-4.375 -8.20312,-4.375 -5.15625,0 -11.875,4.375 -6.71875,4.296875 -12.5,10.390619 -0.23438,0.3125 -0.23438,0.625 -0.3125,4.6875 -0.3125,9.84375 0,11.95313 0.3125,19.0625 0.0781,0.9375 0.15625,2.10938 0.0781,1.09375 -0.70312,1.875 -0.70313,0.85937 -1.79688,0.85937 h -1.40625 q -1.17187,0 -1.95312,-0.85937 -0.70313,-0.78125 -0.625,-1.95313 0,0 0,-1.95312 0.23437,-16.875 0.23437,-20.3125 0,-0.3125 0,-1.17188 0.0781,-0.9375 0.0781,-1.48437 0,-0.0781 -0.0781,-0.0781 0,-0.0781 -0.0781,0 -5.625,8.59375 -11.09375,16.17188 -0.54688,0.85937 -1.64063,0.85937 -1.01562,0 -1.5625,-0.85937 l -0.78125,-1.01563 q -0.70312,-0.9375 -0.70312,-2.10937 0,-1.32813 0.78125,-2.34375 10,-12.89063 15.625,-21.562499 0.23437,-0.3125 0.23437,-0.625 0.3125,-4.453125 0.46875,-6.953125 0,-0.3125 -0.39062,-0.3125 -1.875,0.234375 -12.34375,1.640625 -1.09375,0.15625 -2.03125,-0.546875 -0.85938,-0.703125 -0.9375,-1.875 l -0.15625,-1.015625 q -0.0781,-1.09375 0.625,-1.875 0.78125,-0.859375 1.95312,-0.859375 0.46875,-0.07813 2.42188,-0.15625 5.23437,-0.3125 10.85937,-1.25 0.39063,-0.07813 0.39063,-0.390625 0.39062,-5.859375 0.39062,-7.109375 0,0 0,-3.203125 -0.0781,-1.09375 0.70313,-1.875 0.625,-0.78125 1.64062,-0.78125 0,0 0.0781,0 l 2.10937,0.07813 q 1.09375,0 1.71875,0.859375 0.70313,0.859375 0.54688,1.953125 -0.54688,3.90625 -1.09375,9.140625 z m 96.875,1.875 q -1.17188,-0.07813 -1.95313,-0.9375 -0.78125,-0.859375 -0.78125,-2.03125 v -1.015625 q 0,-1.09375 0.78125,-1.796875 0.85938,-0.78125 1.95313,-0.703125 7.65625,0.703125 18.20312,0.703125 8.59375,0 18.59375,-0.859375 0,0 0.23438,0 0.9375,0 1.71875,0.703125 0.78125,0.703125 0.78125,1.875 v 1.015625 q 0,1.171875 -0.78125,2.03125 -0.78125,0.859375 -1.95313,0.9375 -11.09375,0.703125 -18.59375,0.703125 -9.60937,0 -18.20312,-0.625 z m -6.64063,27.265624 q 0.23438,-1.17187 1.25,-1.875 0.78125,-0.54687 1.79688,-0.54687 0,0 0.3125,0 l 1.01562,0.0781 q 1.09375,0.15625 1.71875,1.01563 0.625,0.85937 0.3125,1.95312 -0.85937,3.51563 -0.85937,6.32813 0,4.60937 4.76562,7.42187 4.76563,2.73438 13.98438,2.73438 14.45312,0 24.45312,-2.34375 1.01563,-0.23438 1.79688,0.39062 0.85937,0.625 0.85937,1.64063 l 0.0781,1.32812 q 0,1.25 -0.78125,2.26563 -0.70313,0.9375 -1.95313,1.17187 -10.15625,2.03125 -24.29687,2.03125 -12.1875,0 -18.82813,-3.90625 -6.64062,-3.90625 -6.64062,-11.25 0,-3.59375 1.01562,-8.4375 z M 714.59961,83.548826 q 0.85937,-0.625 1.95312,-0.390625 1.09375,0.234375 1.64063,1.171875 l 0.625,1.015625 q 0.625,1.015625 0.3125,2.1875 -0.3125,1.09375 -1.32813,1.640625 -1.17187,0.625 -3.67187,1.953125 0,0 -4.76563,2.34375 -3.82812,1.953125 -6.48437,3.359375 -2.65625,1.328125 -6.40625,3.437504 -3.75,2.10937 -6.40625,3.90625 -11.79688,7.65625 -11.79688,15.9375 0,5.07812 4.76563,7.89062 4.76562,2.8125 13.98437,2.8125 12.26563,0 22.65625,-2.10937 1.01563,-0.23438 1.875,0.46875 0.85938,0.625 0.85938,1.64062 v 1.64063 q 0,1.25 -0.78125,2.1875 -0.78125,0.85937 -1.95313,1.01562 -10.39062,1.5625 -22.34375,1.5625 -5.70312,0 -10.3125,-0.9375 -4.53125,-0.9375 -8.04687,-2.8125 -3.51563,-1.875 -5.46875,-5.07812 -1.875,-3.20313 -1.875,-7.5 0,-5.85938 3.4375,-10.78125 3.4375,-5 10,-9.60938 0.3125,-0.23437 0.0781,-0.46875 -4.14062,-7.343749 -10.23437,-21.562499 -0.46875,-1.09375 -0.0781,-2.109375 0.46875,-1.09375 1.5625,-1.484375 l 1.17188,-0.46875 q 0.54687,-0.234375 1.01562,-0.234375 0.54688,0 1.09375,0.234375 1.01563,0.46875 1.48438,1.5625 4.29687,11.09375 9.45312,20.46875 0.15625,0.3125 0.46875,0.15625 4.29688,-2.578125 11.48438,-6.40625 7.26562,-3.828125 8.51562,-4.53125 2.1875,-1.171875 3.51563,-2.109375 z m 51.32812,45.390624 h 10.78125 V 85.189451 h -10.78125 v -6.40625 h 28.51563 v 6.40625 h -10.78125 v 43.749999 h 10.78125 v 6.40625 h -28.51563 z m 73.04688,-43.749999 h -16.09375 v -6.40625 h 39.14062 v 6.40625 H 846.00586 V 135.3457 h -7.03125 z m 104.375,-1.640625 q 0.85937,-0.625 1.95312,-0.390625 1.09375,0.234375 1.64063,1.171875 l 0.625,1.015625 q 0.625,1.015625 0.3125,2.1875 -0.3125,1.09375 -1.32813,1.640625 -1.17187,0.625 -3.67187,1.953125 0,0 -4.76563,2.34375 -3.82812,1.953125 -6.48437,3.359375 -2.65625,1.328125 -6.40625,3.437504 -3.75,2.10937 -6.40625,3.90625 -11.79688,7.65625 -11.79688,15.9375 0,5.07812 4.76563,7.89062 4.76562,2.8125 13.98437,2.8125 12.26563,0 22.65625,-2.10937 1.01563,-0.23438 1.875,0.46875 0.85938,0.625 0.85938,1.64062 v 1.64063 q 0,1.25 -0.78125,2.1875 -0.78125,0.85937 -1.95313,1.01562 -10.39062,1.5625 -22.34375,1.5625 -5.70312,0 -10.3125,-0.9375 -4.53125,-0.9375 -8.04687,-2.8125 -3.51563,-1.875 -5.46875,-5.07812 -1.875,-3.20313 -1.875,-7.5 0,-5.85938 3.4375,-10.78125 3.4375,-5 10,-9.60938 0.3125,-0.23437 0.0781,-0.46875 -4.14062,-7.343749 -10.23437,-21.562499 -0.46875,-1.09375 -0.0781,-2.109375 0.46875,-1.09375 1.5625,-1.484375 l 1.17188,-0.46875 q 0.54687,-0.234375 1.01562,-0.234375 0.54688,0 1.09375,0.234375 1.01563,0.46875 1.48438,1.5625 4.29687,11.09375 9.45312,20.46875 0.15625,0.3125 0.46875,0.15625 4.29688,-2.578125 11.48438,-6.40625 7.26562,-3.828125 8.51562,-4.53125 2.1875,-1.171875 3.51563,-2.109375 z"
       id="text2"
       transform="scale(0.26458333)"
       aria-label="透湖とねことITと" /><path
       d="m 15.015336,22.041279 c 0,4.250941 3.446032,7.696965 7.696973,7.696965 1.384107,0 2.68287,-0.365311 3.805087,-1.004838 -0.462873,4.882381 -4.574323,8.70181 -9.577808,8.70181 -5.313666,0 -9.6212249,-4.307604 -9.6212249,-9.621207 0,-5.00354 3.8194499,-9.114989 8.7018079,-9.577847 -0.639526,1.122251 -1.004835,2.421033 -1.004835,3.805117 z m -5.7727207,5.77273 c 0,4.250939 3.4460327,7.696964 7.6969727,7.696964 2.853052,0 5.364467,-1.559792 6.693557,-3.892158 -0.304364,0.0292 -0.611636,0.04359 -0.920836,0.04359 -5.313594,0 -9.621226,-4.307603 -9.621226,-9.621207 0,-0.30921 0.01454,-0.61641 0.04364,-0.920814 -2.332325,1.328997 -3.8921046,3.840443 -3.8921046,6.693544 z m 13.6276567,-9.34121 0.804145,0.201073 v 0.962103 l -0.804145,0.201072 c -0.689453,0.172351 -1.227743,0.710653 -1.400071,1.400089 L 21.26911,22.041297 H 20.307003 L 20.105911,21.237136 C 19.933548,20.5477 19.395295,20.009392 18.705841,19.837047 l -0.804145,-0.201072 v -0.962103 l 0.804145,-0.201073 c 0.689454,-0.172352 1.227743,-0.710649 1.40007,-1.400084 l 0.201092,-0.804165 h 0.962107 l 0.201091,0.804165 c 0.172364,0.689435 0.710618,1.227743 1.400071,1.400084 z m 4.810613,4.810627 0.804144,0.201046 v 0.962124 l -0.804144,0.201055 c -0.689454,0.172354 -1.227781,0.710653 -1.400071,1.400113 L 26.079723,26.8519 h -0.962144 l -0.20109,-0.804136 c -0.172364,-0.68946 -0.710618,-1.227769 -1.400109,-1.400113 l -0.804107,-0.201055 v -0.962124 l 0.804107,-0.201046 c 0.689491,-0.172377 1.227781,-0.710679 1.400109,-1.400096 l 0.20109,-0.80418 h 0.962144 l 0.201091,0.80418 c 0.172363,0.689417 0.710617,1.227729 1.400071,1.400096 z"
       id="path1"
       style="stroke-width:0.962115" /></g></svg>
